<?xml version="1.0" encoding="utf-8"?>
<!-- Generator: Adobe Illustrator 16.0.2, SVG Export Plug-In . SVG Version: 6.00 Build 0)  -->
<!DOCTYPE svg PUBLIC "-//W3C//DTD SVG 1.1//EN" "http://www.w3.org/Graphics/SVG/1.1/DTD/svg11.dtd">
<svg version="1.1" id="Layer_1" xmlns="http://www.w3.org/2000/svg" xmlns:xlink="http://www.w3.org/1999/xlink" x="0px" y="0px"
	 width="102.682px" height="27.039px" viewBox="0 0 102.682 27.039" enable-background="new 0 0 102.682 27.039"
	 xml:space="preserve">
<g>
	<path d="M9.771,7.613c-0.041,0.16-0.08,0.3-0.12,0.42c0.3-0.36,0.61-0.71,0.93-1.05c0.319-0.34,0.649-0.67,0.99-0.99
		c0.38-0.34,0.805-0.655,1.275-0.945c0.47-0.29,0.95-0.495,1.44-0.615s0.985-0.135,1.485-0.045c0.5,0.09,0.979,0.335,1.44,0.735
		c0.4,0.34,0.675,0.73,0.825,1.17c0.15,0.44,0.215,0.896,0.195,1.365c-0.02,0.47-0.101,0.94-0.24,1.41
		c-0.14,0.47-0.31,0.915-0.51,1.335c-0.32,0.701-0.68,1.365-1.08,1.995c-0.4,0.63-0.8,1.265-1.2,1.905
		c-0.06,0.1-0.175,0.275-0.345,0.525c-0.17,0.25-0.35,0.53-0.54,0.84c-0.19,0.311-0.371,0.625-0.54,0.945
		c-0.17,0.32-0.275,0.58-0.315,0.78c-0.041,0.2,0,0.315,0.12,0.345c0.12,0.03,0.37-0.075,0.75-0.315
		c0.42-0.24,0.885-0.595,1.395-1.065c0.51-0.47,1.02-0.975,1.53-1.515s0.995-1.07,1.455-1.59c0.46-0.52,0.85-0.95,1.17-1.29
		c0.18-0.2,0.35-0.319,0.51-0.36c0.16-0.04,0.295-0.025,0.405,0.045c0.11,0.07,0.175,0.19,0.195,0.36s-0.02,0.355-0.12,0.555
		c-0.18,0.38-0.425,0.815-0.735,1.305c-0.31,0.49-0.645,0.99-1.005,1.5c-0.36,0.51-0.725,1.01-1.095,1.5
		c-0.37,0.49-0.705,0.915-1.005,1.275c-0.34,0.42-0.725,0.845-1.155,1.275c-0.431,0.43-0.89,0.791-1.38,1.08
		c-0.491,0.29-1.005,0.475-1.545,0.555s-1.11-0.02-1.71-0.3c-0.58-0.28-1.015-0.645-1.305-1.095c-0.291-0.45-0.47-0.945-0.54-1.485
		c-0.07-0.54-0.05-1.095,0.06-1.665c0.109-0.57,0.274-1.105,0.495-1.605c0.28-0.68,0.61-1.33,0.99-1.95
		c0.379-0.62,0.77-1.23,1.17-1.83c0.26-0.38,0.535-0.77,0.825-1.17c0.29-0.4,0.555-0.8,0.795-1.2c0.22-0.319,0.31-0.525,0.27-0.615
		c-0.041-0.09-0.155-0.105-0.345-0.045c-0.19,0.06-0.425,0.175-0.705,0.345c-0.28,0.17-0.555,0.345-0.825,0.525
		c-0.27,0.18-0.505,0.345-0.705,0.495c-0.2,0.15-0.32,0.235-0.36,0.255c-1.26,0.96-2.43,2.061-3.51,3.3
		c-0.76,0.86-1.45,1.775-2.07,2.745c-0.62,0.97-1.1,2.005-1.44,3.105c-0.101,0.26-0.161,0.5-0.18,0.72
		c-0.02,0.22-0.08,0.44-0.18,0.66c-0.12,0.26-0.29,0.46-0.51,0.6c-0.22,0.14-0.46,0.225-0.72,0.255
		c-0.259,0.03-0.525,0.01-0.795-0.06c-0.27-0.07-0.515-0.185-0.735-0.345c-0.54-0.379-0.84-0.885-0.9-1.515
		c-0.06-0.63,0.005-1.295,0.195-1.995c0.19-0.7,0.445-1.38,0.765-2.04s0.59-1.2,0.81-1.62c0.3-0.56,0.64-1.11,1.02-1.65
		c0.379-0.54,0.76-1.09,1.14-1.65c0.38-0.56,0.74-1.135,1.08-1.725c0.34-0.59,0.63-1.205,0.87-1.845c0.1-0.42,0.28-0.745,0.54-0.975
		c0.26-0.23,0.55-0.38,0.87-0.45c0.319-0.07,0.645-0.064,0.975,0.015c0.33,0.08,0.625,0.225,0.885,0.435
		c0.26,0.21,0.45,0.48,0.57,0.81C9.861,6.818,9.871,7.193,9.771,7.613z"/>
	<path d="M39.741,6.113c0.26-0.06,0.465-0.05,0.615,0.03c0.15,0.08,0.245,0.19,0.285,0.33c0.04,0.14,0.02,0.295-0.06,0.465
		c-0.08,0.17-0.22,0.315-0.42,0.435c-1.12,0.7-2.285,1.28-3.495,1.74s-2.395,0.75-3.555,0.87c-0.08,0.84-0.266,1.675-0.555,2.505
		c-0.29,0.83-0.605,1.595-0.945,2.295c-0.28,0.58-0.605,1.16-0.975,1.74c-0.371,0.581-0.775,1.135-1.215,1.665
		c-0.44,0.53-0.92,1.016-1.44,1.455c-0.52,0.44-1.08,0.791-1.68,1.05c-0.96,0.42-1.9,0.555-2.82,0.405s-1.735-0.5-2.445-1.05
		c-0.71-0.55-1.26-1.26-1.65-2.13s-0.525-1.805-0.405-2.805c0.161-1.5,0.59-2.965,1.29-4.395c0.7-1.43,1.58-2.685,2.64-3.765
		c0.5-0.52,1.045-0.995,1.635-1.425c0.589-0.43,1.225-0.765,1.905-1.005c0.2-0.08,0.439-0.145,0.72-0.195
		c0.28-0.05,0.564-0.08,0.855-0.09c0.29-0.01,0.57,0.015,0.84,0.075s0.515,0.16,0.735,0.3c0.52,0.04,1.02,0.225,1.5,0.555
		s0.89,0.735,1.23,1.215c1.36,0.26,2.625,0.35,3.795,0.27C37.296,6.573,38.5,6.394,39.741,6.113z M24.5,11.963
		c-0.46,0.76-0.83,1.55-1.11,2.37c-0.28,0.82-0.45,1.53-0.51,2.13c-0.06,0.6,0.015,1.016,0.225,1.245
		c0.21,0.23,0.595,0.135,1.155-0.285c0.48-0.379,0.915-0.774,1.305-1.185c0.39-0.41,0.765-0.865,1.125-1.365
		c0.379-0.5,0.729-1.025,1.05-1.575c0.32-0.55,0.6-1.114,0.84-1.695c0.1-0.28,0.2-0.575,0.3-0.885c0.1-0.31,0.169-0.645,0.21-1.005
		c-0.3-0.1-0.585-0.245-0.855-0.435c-0.27-0.189-0.525-0.455-0.765-0.795c-0.6,0.46-1.15,0.995-1.65,1.605
		C25.32,10.698,24.88,11.323,24.5,11.963z"/>
	<path d="M41.661,7.613c-0.041,0.16-0.08,0.3-0.12,0.42c0.3-0.36,0.61-0.71,0.93-1.05c0.319-0.34,0.649-0.67,0.99-0.99
		c0.38-0.34,0.805-0.655,1.275-0.945c0.47-0.29,0.95-0.495,1.44-0.615s0.985-0.135,1.485-0.045c0.5,0.09,0.979,0.335,1.44,0.735
		c0.4,0.34,0.675,0.73,0.825,1.17c0.15,0.44,0.215,0.896,0.195,1.365c-0.02,0.47-0.101,0.94-0.24,1.41
		c-0.14,0.47-0.31,0.915-0.51,1.335c-0.32,0.701-0.68,1.365-1.08,1.995c-0.4,0.63-0.8,1.265-1.2,1.905
		c-0.06,0.1-0.175,0.275-0.345,0.525c-0.17,0.25-0.35,0.53-0.54,0.84c-0.19,0.311-0.371,0.625-0.54,0.945
		c-0.17,0.32-0.275,0.58-0.315,0.78c-0.041,0.2,0,0.315,0.12,0.345c0.12,0.03,0.37-0.075,0.75-0.315
		c0.42-0.24,0.885-0.595,1.395-1.065c0.51-0.47,1.02-0.975,1.53-1.515s0.995-1.07,1.455-1.59c0.46-0.52,0.85-0.95,1.17-1.29
		c0.18-0.2,0.35-0.319,0.51-0.36c0.16-0.04,0.295-0.025,0.405,0.045c0.11,0.07,0.175,0.19,0.195,0.36s-0.02,0.355-0.12,0.555
		c-0.18,0.38-0.425,0.815-0.735,1.305c-0.31,0.49-0.645,0.99-1.005,1.5c-0.36,0.51-0.725,1.01-1.095,1.5
		c-0.37,0.49-0.705,0.915-1.005,1.275c-0.34,0.42-0.725,0.845-1.155,1.275c-0.431,0.43-0.89,0.791-1.38,1.08
		c-0.491,0.29-1.005,0.475-1.545,0.555s-1.11-0.02-1.71-0.3c-0.58-0.28-1.015-0.645-1.305-1.095c-0.291-0.45-0.47-0.945-0.54-1.485
		c-0.07-0.54-0.05-1.095,0.06-1.665c0.109-0.57,0.274-1.105,0.495-1.605c0.28-0.68,0.61-1.33,0.99-1.95
		c0.379-0.62,0.77-1.23,1.17-1.83c0.26-0.38,0.535-0.77,0.825-1.17c0.29-0.4,0.555-0.8,0.795-1.2c0.22-0.319,0.31-0.525,0.27-0.615
		c-0.041-0.09-0.155-0.105-0.345-0.045c-0.19,0.06-0.425,0.175-0.705,0.345c-0.28,0.17-0.555,0.345-0.825,0.525
		c-0.27,0.18-0.505,0.345-0.705,0.495c-0.2,0.15-0.32,0.235-0.36,0.255c-1.26,0.96-2.43,2.061-3.51,3.3
		c-0.76,0.86-1.45,1.775-2.07,2.745c-0.62,0.97-1.1,2.005-1.44,3.105c-0.101,0.26-0.161,0.5-0.18,0.72
		c-0.02,0.22-0.08,0.44-0.18,0.66c-0.12,0.26-0.29,0.46-0.51,0.6c-0.22,0.14-0.46,0.225-0.72,0.255
		c-0.259,0.03-0.525,0.01-0.795-0.06c-0.27-0.07-0.515-0.185-0.735-0.345c-0.54-0.379-0.84-0.885-0.9-1.515
		c-0.06-0.63,0.005-1.295,0.195-1.995c0.19-0.7,0.445-1.38,0.765-2.04s0.59-1.2,0.81-1.62c0.3-0.56,0.64-1.11,1.02-1.65
		c0.379-0.54,0.76-1.09,1.14-1.65c0.38-0.56,0.74-1.135,1.08-1.725c0.34-0.59,0.63-1.205,0.87-1.845c0.1-0.42,0.28-0.745,0.54-0.975
		c0.26-0.23,0.55-0.38,0.87-0.45c0.319-0.07,0.645-0.064,0.975,0.015c0.33,0.08,0.625,0.225,0.885,0.435
		c0.26,0.21,0.45,0.48,0.57,0.81C41.75,6.818,41.76,7.193,41.661,7.613z"/>
	<path d="M58.91,9.803c0.32-0.54,0.51-0.945,0.57-1.215s0.025-0.45-0.105-0.54c-0.13-0.09-0.326-0.105-0.585-0.045
		c-0.26,0.06-0.545,0.165-0.855,0.315c-0.311,0.15-0.621,0.315-0.93,0.495c-0.311,0.18-0.565,0.35-0.765,0.51
		c-0.72,0.52-1.19,0.965-1.41,1.335c-0.221,0.37-0.281,0.635-0.18,0.795c0.06,0.1,0.18,0.155,0.36,0.165c0.18,0.01,0.39,0.01,0.63,0
		c0.24-0.01,0.475-0.035,0.705-0.075c0.23-0.04,0.415-0.06,0.555-0.06c0.68-0.06,1.285,0.021,1.815,0.24
		c0.53,0.22,0.955,0.53,1.275,0.93c0.32,0.4,0.535,0.875,0.645,1.425c0.11,0.55,0.105,1.135-0.015,1.755
		c0.38-0.22,0.745-0.5,1.095-0.84c0.35-0.34,0.675-0.69,0.975-1.05c0.3-0.36,0.57-0.715,0.81-1.065c0.24-0.35,0.45-0.635,0.63-0.855
		c0.22-0.28,0.435-0.45,0.645-0.51s0.375-0.04,0.495,0.06c0.12,0.1,0.189,0.26,0.21,0.48c0.02,0.22-0.06,0.48-0.24,0.78
		c-0.74,1.38-1.55,2.645-2.43,3.795c-0.88,1.15-1.9,2.145-3.06,2.985c-0.48,0.34-1.055,0.635-1.725,0.885
		c-0.67,0.25-1.37,0.44-2.1,0.57c-0.73,0.13-1.445,0.19-2.145,0.18c-0.7-0.01-1.32-0.105-1.86-0.285
		c-0.28-0.1-0.565-0.235-0.855-0.405c-0.29-0.17-0.555-0.37-0.795-0.6c-0.24-0.229-0.435-0.49-0.585-0.78
		c-0.15-0.29-0.225-0.605-0.225-0.945c0-0.42,0.12-0.799,0.36-1.14c0.24-0.34,0.535-0.595,0.885-0.765s0.72-0.245,1.11-0.225
		c0.39,0.02,0.745,0.16,1.065,0.42c0.46,0.4,0.95,0.71,1.47,0.93c0.12-0.02,0.365-0.165,0.735-0.435
		c0.37-0.27,0.74-0.585,1.11-0.945c0.37-0.36,0.685-0.71,0.945-1.05c0.26-0.34,0.34-0.6,0.24-0.78c-0.08-0.12-0.22-0.175-0.42-0.165
		c-0.2,0.01-0.36,0.035-0.48,0.075c-0.48,0.101-0.98,0.141-1.5,0.12c-0.521-0.02-1.01-0.109-1.47-0.27
		c-0.46-0.16-0.865-0.405-1.215-0.735c-0.35-0.33-0.595-0.775-0.735-1.335c-0.18-0.62-0.21-1.235-0.09-1.845
		c0.12-0.61,0.34-1.195,0.66-1.755c0.32-0.56,0.705-1.07,1.155-1.53c0.45-0.46,0.915-0.86,1.395-1.2
		c0.48-0.32,1.035-0.61,1.665-0.87c0.63-0.26,1.27-0.43,1.92-0.51c0.65-0.08,1.28-0.03,1.89,0.15c0.61,0.18,1.135,0.54,1.575,1.08
		c0.379,0.48,0.585,0.995,0.615,1.545c0.03,0.55-0.06,1.075-0.27,1.575s-0.52,0.95-0.93,1.35c-0.41,0.4-0.875,0.701-1.395,0.9
		c-0.4,0.12-0.69,0.07-0.87-0.15C58.7,10.453,58.709,10.163,58.91,9.803z"/>
	<path d="M75.8,5.393c-0.22,0.4-0.515,0.715-0.885,0.945c-0.37,0.23-0.775,0.405-1.215,0.525c-0.44,0.12-0.896,0.19-1.365,0.21
		s-0.915,0.02-1.335,0c-0.26,0.44-0.6,1.045-1.02,1.815c-0.42,0.77-0.84,1.59-1.26,2.46s-0.815,1.74-1.185,2.61
		s-0.625,1.615-0.765,2.235c-0.18,0.641-0.175,1.055,0.015,1.245c0.19,0.19,0.575,0.095,1.155-0.285
		c0.439-0.28,0.875-0.63,1.305-1.05c0.43-0.42,0.84-0.855,1.23-1.305c0.39-0.45,0.76-0.895,1.11-1.335
		c0.35-0.439,0.655-0.83,0.915-1.17c0.2-0.28,0.405-0.45,0.615-0.51s0.38-0.045,0.51,0.045s0.21,0.245,0.24,0.465
		c0.03,0.22-0.025,0.47-0.165,0.75c-0.32,0.68-0.645,1.365-0.975,2.055s-0.68,1.355-1.05,1.995c-0.371,0.64-0.78,1.235-1.23,1.785
		c-0.45,0.55-0.956,1.025-1.515,1.425c-0.68,0.48-1.44,0.77-2.28,0.87c-0.84,0.1-1.61-0.109-2.31-0.63
		c-0.56-0.4-0.945-0.895-1.155-1.485c-0.21-0.59-0.315-1.215-0.315-1.875s0.07-1.32,0.21-1.98c0.14-0.66,0.3-1.27,0.48-1.83
		c0.14-0.5,0.311-1.005,0.51-1.515c0.2-0.51,0.425-1.045,0.675-1.605c0.25-0.56,0.53-1.165,0.84-1.815
		c0.31-0.649,0.665-1.365,1.065-2.145c-0.28-0.04-0.545-0.1-0.795-0.18s-0.455-0.2-0.615-0.36c-0.24-0.26-0.29-0.565-0.15-0.915
		c0.14-0.35,0.39-0.675,0.75-0.975c0.36-0.3,0.795-0.545,1.305-0.735c0.51-0.19,1.015-0.255,1.515-0.195
		c0.28-0.4,0.585-0.79,0.915-1.17s0.685-0.72,1.065-1.02c0.3-0.24,0.665-0.43,1.095-0.57c0.43-0.14,0.845-0.195,1.245-0.165
		c0.4,0.03,0.76,0.16,1.08,0.39c0.32,0.23,0.52,0.595,0.6,1.095c0.08,0.48,0.015,0.93-0.195,1.35c-0.21,0.42-0.455,0.81-0.735,1.17
		c0.22,0.08,0.45,0.145,0.69,0.195c0.24,0.05,0.469,0.075,0.69,0.075c0.34,0,0.57,0.125,0.69,0.375S75.92,5.153,75.8,5.393z"/>
	<path d="M85.969,7.883c-1.02-0.12-1.995-0.02-2.925,0.3c-0.93,0.32-1.795,0.775-2.595,1.365c-0.8,0.59-1.525,1.26-2.175,2.01
		s-1.205,1.505-1.665,2.265c-0.8,1.32-1.185,2.185-1.155,2.595c0.03,0.41,0.305,0.476,0.825,0.195c0.52-0.28,1.195-0.85,2.025-1.71
		c0.83-0.859,1.655-1.89,2.475-3.09c0.2-0.28,0.415-0.57,0.645-0.87c0.229-0.3,0.48-0.575,0.75-0.825
		c0.27-0.25,0.574-0.46,0.915-0.63c0.34-0.17,0.71-0.275,1.11-0.315c0.48-0.04,0.885,0.021,1.215,0.18
		c0.33,0.16,0.58,0.385,0.75,0.675c0.17,0.291,0.24,0.635,0.21,1.035c-0.03,0.4-0.175,0.82-0.435,1.26
		c-0.12,0.22-0.28,0.475-0.48,0.765c-0.2,0.291-0.405,0.605-0.615,0.945c-0.21,0.34-0.41,0.685-0.6,1.035
		c-0.19,0.351-0.345,0.686-0.465,1.005c-0.161,0.44-0.12,0.645,0.12,0.615c0.24-0.03,0.56-0.215,0.96-0.555
		c0.76-0.64,1.455-1.325,2.085-2.055c0.63-0.73,1.235-1.405,1.815-2.025c0.12-0.12,0.245-0.19,0.375-0.21
		c0.13-0.02,0.25,0,0.36,0.06c0.11,0.06,0.195,0.155,0.255,0.285c0.06,0.13,0.07,0.285,0.03,0.465
		c-0.161,0.701-0.495,1.515-1.005,2.445c-0.51,0.93-1.115,1.825-1.815,2.685c-0.7,0.86-1.45,1.61-2.25,2.25
		c-0.8,0.64-1.56,1.01-2.28,1.11c-0.48,0.06-0.93,0.025-1.35-0.105s-0.78-0.334-1.08-0.615c-0.3-0.28-0.54-0.625-0.72-1.035
		c-0.18-0.41-0.27-0.855-0.27-1.335c0-0.38,0.035-0.76,0.105-1.14c0.07-0.38,0.165-0.76,0.285-1.14c-0.34,0.581-0.7,1.21-1.08,1.89
		c-0.38,0.68-0.81,1.3-1.29,1.86c-0.48,0.56-1.016,0.99-1.605,1.29c-0.59,0.3-1.266,0.36-2.025,0.18c-0.859-0.2-1.47-0.59-1.83-1.17
		c-0.36-0.58-0.564-1.235-0.615-1.965c-0.05-0.729,0.02-1.479,0.21-2.25c0.19-0.77,0.416-1.444,0.675-2.025
		c0.66-1.5,1.52-2.885,2.58-4.155s2.27-2.355,3.63-3.255c0.62-0.42,1.314-0.795,2.085-1.125c0.77-0.33,1.555-0.555,2.355-0.675
		c0.799-0.12,1.59-0.105,2.37,0.045c0.78,0.15,1.5,0.495,2.16,1.035c0.26,0.22,0.415,0.475,0.465,0.765s0.02,0.565-0.09,0.825
		c-0.11,0.26-0.29,0.476-0.54,0.645C86.604,7.858,86.309,7.923,85.969,7.883z"/>
	<path d="M95.089,7.103c0,0.101-0.005,0.2-0.015,0.3c-0.01,0.101-0.025,0.2-0.045,0.3c0.34-0.54,0.694-1.065,1.065-1.575
		c0.37-0.51,0.825-0.935,1.365-1.275c0.48-0.3,0.97-0.47,1.47-0.51c0.5-0.04,0.975,0.02,1.425,0.18c0.45,0.161,0.85,0.42,1.2,0.78
		c0.35,0.36,0.615,0.79,0.795,1.29c0.24,0.66,0.35,1.36,0.33,2.1c-0.02,0.74-0.115,1.476-0.285,2.205c-0.17,0.73-0.4,1.44-0.69,2.13
		c-0.29,0.69-0.595,1.315-0.915,1.875c-0.46,0.82-0.965,1.585-1.515,2.295s-1.135,1.335-1.755,1.875c-0.62,0.54-1.26,0.98-1.92,1.32
		c-0.66,0.34-1.33,0.55-2.01,0.63c-0.78,0.101-1.57,0.015-2.37-0.255c-0.8-0.27-1.43-0.715-1.89-1.335
		c-0.4,0.76-0.78,1.535-1.14,2.325c-0.36,0.79-0.69,1.605-0.99,2.445c-0.1,0.24-0.18,0.485-0.24,0.735s-0.135,0.495-0.225,0.735
		c-0.09,0.24-0.205,0.46-0.345,0.66c-0.14,0.2-0.34,0.36-0.6,0.48c-0.3,0.16-0.604,0.235-0.915,0.225
		c-0.31-0.01-0.595-0.085-0.855-0.225c-0.26-0.14-0.484-0.33-0.675-0.57c-0.19-0.24-0.315-0.521-0.375-0.84
		c-0.06-0.4-0.045-0.83,0.045-1.29c0.09-0.46,0.22-0.925,0.39-1.395c0.17-0.47,0.355-0.92,0.555-1.35
		c0.2-0.43,0.38-0.805,0.54-1.125c0.24-0.48,0.536-1.06,0.885-1.74c0.35-0.68,0.735-1.42,1.155-2.22s0.851-1.63,1.29-2.49
		c0.44-0.859,0.865-1.695,1.275-2.505c0.41-0.81,0.79-1.575,1.14-2.295c0.35-0.72,0.635-1.34,0.855-1.86
		c0.02-0.42,0.13-0.775,0.33-1.065c0.2-0.29,0.45-0.505,0.75-0.645c0.3-0.14,0.62-0.21,0.96-0.21c0.34,0,0.655,0.07,0.945,0.21
		c0.29,0.14,0.53,0.351,0.72,0.63C94.994,6.333,95.089,6.683,95.089,7.103z M93.499,16.943c0.36-0.2,0.715-0.48,1.065-0.84
		s0.68-0.755,0.99-1.185c0.31-0.43,0.604-0.88,0.885-1.35c0.28-0.47,0.54-0.925,0.78-1.365c0.18-0.28,0.379-0.65,0.6-1.11
		c0.22-0.46,0.405-0.92,0.555-1.38c0.15-0.459,0.245-0.875,0.285-1.245c0.04-0.37-0.025-0.61-0.195-0.72
		c-0.17-0.11-0.476-0.04-0.915,0.21c-0.44,0.25-1.061,0.765-1.86,1.545c-0.52,0.521-1.015,1.076-1.485,1.665
		c-0.47,0.59-0.915,1.195-1.335,1.815c-0.08,0.12-0.16,0.24-0.24,0.36c-0.081,0.12-0.18,0.285-0.3,0.495s-0.275,0.47-0.465,0.78
		c-0.19,0.31-0.416,0.715-0.675,1.215c0.02,0.16,0.11,0.335,0.27,0.525c0.16,0.19,0.35,0.355,0.57,0.495
		c0.22,0.14,0.459,0.225,0.72,0.255C93.009,17.138,93.259,17.083,93.499,16.943z"/>
</g>
</svg>
